<svg width="48" height="48" viewBox="0 0 48 48" fill="none" xmlns="http://www.w3.org/2000/svg">
<circle cx="24" cy="24" r="24" fill="#F3F4F6"/>
<path d="M15.5316 30.5925L15.5133 30.6108C15.2658 30.07 15.1099 29.4558 15.0458 28.7775C15.1099 29.4466 15.2841 30.0516 15.5316 30.5925Z" fill="#5C566E"/>
<path d="M21.4167 22.6816C22.6216 22.6816 23.5983 21.7048 23.5983 20.4999C23.5983 19.295 22.6216 18.3182 21.4167 18.3182C20.2118 18.3182 19.235 19.295 19.235 20.4999C19.235 21.7048 20.2118 22.6816 21.4167 22.6816Z" fill="#5C566E"/>
<path d="M28.0075 15H20.3258C16.9892 15 15 16.9892 15 20.3258V28.0075C15 29.0067 15.1742 29.8775 15.5133 30.6108C16.3017 32.3525 17.9883 33.3333 20.3258 33.3333H28.0075C31.3442 33.3333 33.3333 31.3442 33.3333 28.0075V25.9083V20.3258C33.3333 16.9892 31.3442 15 28.0075 15ZM31.8392 24.625C31.1242 24.0108 29.9692 24.0108 29.2542 24.625L25.4408 27.8975C24.7258 28.5117 23.5708 28.5117 22.8558 27.8975L22.5442 27.6408C21.8933 27.0725 20.8575 27.0175 20.1242 27.5125L16.6958 29.8133C16.4942 29.3 16.375 28.7042 16.375 28.0075V20.3258C16.375 17.7408 17.7408 16.375 20.3258 16.375H28.0075C30.5925 16.375 31.9583 17.7408 31.9583 20.3258V24.7258L31.8392 24.625Z" fill="#5C566E"/>
</svg>
