<svg width="18" height="18" viewBox="0 0 18 18" fill="none" xmlns="http://www.w3.org/2000/svg">
<path d="M6.43984 17H11.2398C15.2398 17 16.8398 15.4 16.8398 11.4V6.6C16.8398 2.6 15.2398 1 11.2398 1H6.43984C2.43984 1 0.839844 2.6 0.839844 6.6V11.4C0.839844 15.4 2.43984 17 6.43984 17Z" stroke="#73707D" stroke-width="1.5" stroke-linecap="round" stroke-linejoin="round"/>
<path d="M11.6963 14.2003V11.0803" stroke="#73707D" stroke-width="1.5" stroke-miterlimit="10" stroke-linecap="round" stroke-linejoin="round"/>
<path d="M11.6963 5.36005V3.80005" stroke="#73707D" stroke-width="1.5" stroke-miterlimit="10" stroke-linecap="round" stroke-linejoin="round"/>
<path d="M11.6957 9.51986C12.8445 9.51986 13.7757 8.58862 13.7757 7.43986C13.7757 6.29111 12.8445 5.35986 11.6957 5.35986C10.547 5.35986 9.61572 6.29111 9.61572 7.43986C9.61572 8.58862 10.547 9.51986 11.6957 9.51986Z" stroke="#73707D" stroke-width="1.5" stroke-miterlimit="10" stroke-linecap="round" stroke-linejoin="round"/>
<path d="M5.9834 14.2001V12.6401" stroke="#73707D" stroke-width="1.5" stroke-miterlimit="10" stroke-linecap="round" stroke-linejoin="round"/>
<path d="M5.9834 6.92005V3.80005" stroke="#73707D" stroke-width="1.5" stroke-miterlimit="10" stroke-linecap="round" stroke-linejoin="round"/>
<path d="M5.98381 12.6402C7.13256 12.6402 8.06381 11.709 8.06381 10.5602C8.06381 9.41147 7.13256 8.48022 5.98381 8.48022C4.83506 8.48022 3.90381 9.41147 3.90381 10.5602C3.90381 11.709 4.83506 12.6402 5.98381 12.6402Z" stroke="#73707D" stroke-width="1.5" stroke-miterlimit="10" stroke-linecap="round" stroke-linejoin="round"/>
</svg>
