<svg width="13" height="13" viewBox="0 0 13 13" fill="none" xmlns="http://www.w3.org/2000/svg">
<path fill-rule="evenodd" clip-rule="evenodd" d="M6.5 0C10.0899 0 13 2.91015 13 6.5C13 10.0899 10.0899 13 6.5 13C2.91015 13 0 10.0899 0 6.5C0 2.91015 2.91015 0 6.5 0ZM6.50014 1.41587C3.69224 1.41587 1.41598 3.69212 1.41598 6.50003C1.41598 9.30793 3.69224 11.5842 6.50014 11.5842C9.30804 11.5842 11.5843 9.30793 11.5843 6.50003C11.5843 3.69212 9.30804 1.41587 6.50014 1.41587ZM6.44086 8.70864C6.83336 8.70864 7.1605 9.03581 7.1605 9.42839C7.1605 9.81165 6.84272 10.1481 6.44086 10.1481C6.039 10.1481 5.73057 9.81162 5.73057 9.42839C5.73057 9.03581 6.04835 8.70864 6.44086 8.70864ZM6.5622 3.08757C7.82386 3.08757 8.72448 3.80093 8.72448 4.80149C8.72448 5.23733 8.55339 5.64362 8.25914 6.0186C8.08813 6.23652 7.91293 6.40493 7.70368 6.5744L7.56538 6.68412C7.25302 6.93618 7.17299 7.09314 7.15752 7.488L7.15559 7.55237L7.15435 7.68049C7.15435 8.01666 6.9149 8.23532 6.43136 8.23532C5.93976 8.23532 5.74574 8.00472 5.74574 7.43747C5.74574 6.71365 5.98718 6.26979 6.43249 5.88581L6.50136 5.83003L6.74278 5.64182L6.80064 5.59504C7.07958 5.36454 7.20372 5.18296 7.20372 4.96041C7.20372 4.61792 6.86803 4.45016 6.5622 4.45016C6.39483 4.45016 6.28054 4.48545 6.14292 4.56717C6.00529 4.64889 5.95938 4.70556 5.8895 4.79068L5.80184 4.90046L5.76215 4.95258C5.62857 5.13234 5.49876 5.21612 5.28181 5.21612C4.89191 5.21612 4.54946 4.93989 4.54946 4.51171C4.54946 3.76971 5.37491 3.08757 6.5622 3.08757Z" fill="#3F04FE"/>
</svg>
