<svg width="68" height="67" viewBox="0 0 68 67" fill="none" xmlns="http://www.w3.org/2000/svg">
<circle cx="34" cy="33.5" r="33" fill="white" stroke="#EDE7FF"/>
<path d="M29.8999 45H37.0998C43.0997 45 45.4997 42.6 45.4997 36.6V29.4C45.4997 23.4 43.0997 21 37.0998 21H29.8999C23.9 21 21.5 23.4 21.5 29.4V36.6C21.5 42.6 23.9 45 29.8999 45Z" stroke="#3F04FE" stroke-width="1.5" stroke-linecap="round" stroke-linejoin="round"/>
<path d="M29.9 30.6C31.2254 30.6 32.2999 29.5255 32.2999 28.2C32.2999 26.8746 31.2254 25.8 29.9 25.8C28.5745 25.8 27.5 26.8746 27.5 28.2C27.5 29.5255 28.5745 30.6 29.9 30.6Z" stroke="#3F04FE" stroke-width="1.5" stroke-linecap="round" stroke-linejoin="round"/>
<path d="M22.3047 41.3399L28.2206 37.3679C29.1686 36.7319 30.5366 36.8039 31.3886 37.5359L31.7846 37.8839C32.7205 38.6879 34.2325 38.6879 35.1685 37.8839L40.1604 33.5999C41.0964 32.7959 42.6084 32.7959 43.5444 33.5999L45.5004 35.2799" stroke="#3F04FE" stroke-width="1.5" stroke-linecap="round" stroke-linejoin="round"/>
</svg>
