<svg width="16" height="16" viewBox="0 0 16 16" fill="none" xmlns="http://www.w3.org/2000/svg">
<path d="M5.38715 3.67029L7.33778 1.71892L7.33312 12.011C7.33312 12.3792 7.63159 12.6777 7.99977 12.6777C8.36795 12.6777 8.66642 12.3792 8.66642 12.011L8.67107 1.73027L10.6124 3.67229C10.8772 3.92807 11.2993 3.92076 11.555 3.65591C11.8046 3.39757 11.8046 2.98797 11.555 2.72962L9.41441 0.586256C8.63361 -0.195064 7.36731 -0.195471 6.58601 0.58535C6.58569 0.585662 6.58541 0.585944 6.5851 0.586256L4.44447 2.72762C4.18869 2.99247 4.196 3.4145 4.46084 3.67029C4.71919 3.91982 5.12877 3.91982 5.38715 3.67029Z" fill="white"/>
<path d="M15.3331 10.6664C14.9649 10.6664 14.6664 10.9649 14.6664 11.333V13.9997C14.6664 14.3679 14.368 14.6664 13.9998 14.6664H1.99994C1.63176 14.6664 1.33329 14.3679 1.33329 13.9997V11.333C1.33329 10.9649 1.03483 10.6664 0.666647 10.6664C0.298465 10.6664 0 10.9649 0 11.333V13.9997C0 15.1043 0.895425 15.9998 1.99997 15.9998H13.9998C15.1044 15.9998 15.9998 15.1043 15.9998 13.9997V11.333C15.9997 10.9649 15.7013 10.6664 15.3331 10.6664Z" fill="white"/>
</svg>
